<?xml version="1.0" encoding="utf-8"?>
<!-- Generator: Adobe Illustrator 27.3.1, SVG Export Plug-In . SVG Version: 6.00 Build 0)  -->
<svg version="1.1" id="Layer_1" xmlns="http://www.w3.org/2000/svg" xmlns:xlink="http://www.w3.org/1999/xlink" x="0px" y="0px"
	 viewBox="0 0 95.46 24.08" style="enable-background:new 0 0 95.46 24.08;" xml:space="preserve">
<style type="text/css">
	.st0{fill-rule:evenodd;clip-rule:evenodd;fill:#48B2E5;}
	.st1{fill-rule:evenodd;clip-rule:evenodd;fill:#5087C6;}
	.st2{fill-rule:evenodd;clip-rule:evenodd;fill:#3562AE;}
	.st3{fill:#48B2E5;}
	.st4{fill:#3562AE;}
</style>
<g>
	<g>
		<polygon class="st0" points="8.2,3.52 12.94,6.25 23.29,6.25 21.06,0.13 3.18,0.13 5.41,6.25 8.2,6.25 		"/>
		<path class="st1" d="M15.36,12.43l4.74,2.74c2.63,0,5.33,0,8.2,0l-2.23-6.12c-4.69,0-8.91,0-13.13,0L8.2,11.78V9.04
			c-2.63,0-5.33,0-8.2,0l2.23,6.12c4.69,0,8.91,0,13.13,0V12.43z"/>
		<polygon class="st2" points="22.89,17.96 20.1,17.96 15.36,20.69 15.36,17.96 5.02,17.96 7.25,24.08 25.12,24.08 		"/>
	</g>
	<g>
		<g>
			<path class="st3" d="M37.66,2.22c-0.47-0.27-0.97-0.45-1.52-0.53v4.48h-1.27V1.7c-0.54,0.08-1.04,0.25-1.52,0.53l-0.43-0.95
				c0.76-0.46,1.66-0.68,2.58-0.68c0.93,0,1.84,0.23,2.59,0.68L37.66,2.22z"/>
			<path class="st3" d="M42.41,3.76v2.42h-1.23V3.95c0-0.68-0.31-1-0.86-1c-0.59,0-1.01,0.36-1.01,1.14v2.09H38.1V0.35h1.22v2.04
				c0.33-0.33,0.8-0.5,1.34-0.5C41.66,1.89,42.41,2.47,42.41,3.76z"/>
			<path class="st3" d="M46.24,4.85l0.65,0.71c-0.39,0.45-0.98,0.68-1.74,0.68c-1.46,0-2.41-0.92-2.41-2.17
				c0-1.26,0.96-2.17,2.26-2.17c1.19,0,2.17,0.79,2.18,2.14l-3.12,0.6c0.18,0.42,0.57,0.63,1.12,0.63
				C45.62,5.26,45.95,5.13,46.24,4.85z M43.94,3.94l2.06-0.4c-0.12-0.43-0.49-0.72-1-0.72C44.38,2.82,43.96,3.23,43.94,3.94z"/>
			<path class="st3" d="M50.48,3.43c0-1.66,1.27-2.84,2.98-2.84c0.95,0,1.74,0.35,2.26,0.97l-0.82,0.75
				c-0.37-0.42-0.83-0.64-1.38-0.64c-1.03,0-1.76,0.72-1.76,1.76c0,1.04,0.73,1.76,1.76,1.76c0.55,0,1.01-0.22,1.38-0.65l0.82,0.75
				c-0.52,0.64-1.31,0.98-2.27,0.98C51.75,6.27,50.48,5.09,50.48,3.43z"/>
			<path class="st3" d="M60.3,1.95v4.22h-1.17V5.69c-0.31,0.37-0.75,0.55-1.32,0.55c-1.19,0-2.11-0.85-2.11-2.17
				s0.92-2.17,2.11-2.17c0.52,0,0.96,0.16,1.26,0.51V1.95H60.3z M59.1,4.07c0-0.73-0.47-1.17-1.08-1.17c-0.61,0-1.08,0.44-1.08,1.17
				s0.47,1.17,1.08,1.17C58.63,5.24,59.1,4.8,59.1,4.07z"/>
			<path class="st3" d="M65.52,4.07c0,1.33-0.92,2.17-2.1,2.17c-0.53,0-0.96-0.16-1.27-0.51V7.7h-1.22V1.95h1.17v0.49
				c0.31-0.37,0.76-0.55,1.33-0.55C64.61,1.89,65.52,2.74,65.52,4.07z M64.28,4.07c0-0.73-0.46-1.17-1.08-1.17
				c-0.61,0-1.08,0.44-1.08,1.17s0.46,1.17,1.08,1.17C63.82,5.24,64.28,4.8,64.28,4.07z"/>
			<path class="st3" d="M65.52,0.68C65.52,0.3,65.83,0,66.29,0c0.46,0,0.76,0.28,0.76,0.66c0,0.41-0.31,0.71-0.76,0.71
				C65.83,1.37,65.52,1.07,65.52,0.68z M65.67,1.95h1.22v4.22h-1.22V1.95z"/>
			<path class="st3" d="M69.99,5.97C69.74,6.16,69.37,6.24,69,6.24c-1,0-1.58-0.51-1.58-1.52V1.02h1.22v1.03h1.04v0.94h-1.04v1.72
				c0,0.36,0.19,0.56,0.52,0.56c0.18,0,0.36-0.05,0.5-0.16L69.99,5.97z"/>
			<path class="st3" d="M74.59,1.95v4.22h-1.17V5.69c-0.31,0.37-0.75,0.55-1.32,0.55c-1.19,0-2.11-0.85-2.11-2.17
				s0.92-2.17,2.11-2.17c0.52,0,0.96,0.16,1.26,0.51V1.95H74.59z M73.39,4.07c0-0.73-0.47-1.17-1.08-1.17
				c-0.61,0-1.08,0.44-1.08,1.17s0.47,1.17,1.08,1.17C72.92,5.24,73.39,4.8,73.39,4.07z"/>
			<path class="st3" d="M75.17,4.78V0.35h1.22v4.36c0,0.36,0.19,0.56,0.53,0.56c0.13,0,0.28-0.04,0.35-0.08l0.06,0.95
				c-0.21,0.07-0.42,0.1-0.64,0.1C75.74,6.24,75.17,5.72,75.17,4.78z"/>
		</g>
		<g>
			<path class="st4" d="M39.74,11.79v8.98h2.47v2.66h-8.27v-2.66h2.49v-8.98h-2.49V9.13h8.27v2.66H39.74z"/>
			<path class="st4" d="M54.67,17.14v6.29h-3.19v-5.8c0-1.78-0.82-2.59-2.23-2.59c-1.53,0-2.63,0.94-2.63,2.96v5.43h-3.19V12.44
				h3.04v1.29c0.86-0.94,2.14-1.45,3.64-1.45C52.71,12.28,54.67,13.79,54.67,17.14z"/>
			<path class="st4" d="M67.07,12.44l-4.64,10.99h-3.29l-4.62-10.99h3.29l3.04,7.47L64,12.44H67.07z"/>
			<path class="st4" d="M75.44,19.98l1.69,1.84c-1.02,1.16-2.55,1.78-4.53,1.78c-3.8,0-6.27-2.39-6.27-5.66
				c0-3.29,2.49-5.66,5.88-5.66c3.1,0,5.66,2.04,5.68,5.55l-8.13,1.57c0.47,1.08,1.49,1.63,2.92,1.63
				C73.85,21.04,74.68,20.69,75.44,19.98z M69.45,17.61l5.35-1.04c-0.31-1.12-1.27-1.88-2.59-1.88
				C70.62,14.69,69.52,15.75,69.45,17.61z"/>
			<path class="st4" d="M78.01,22.41l1.06-2.29c0.98,0.63,2.47,1.06,3.82,1.06c1.47,0,2.02-0.39,2.02-1c0-1.8-6.64,0.04-6.64-4.35
				c0-2.08,1.88-3.55,5.09-3.55c1.51,0,3.19,0.35,4.23,0.96l-1.06,2.27c-1.08-0.61-2.16-0.82-3.16-0.82c-1.43,0-2.04,0.45-2.04,1.02
				c0,1.88,6.64,0.06,6.64,4.39c0,2.04-1.9,3.49-5.19,3.49C80.91,23.59,79.03,23.08,78.01,22.41z"/>
			<path class="st4" d="M95.46,22.9c-0.65,0.47-1.61,0.69-2.57,0.69c-2.61,0-4.1-1.33-4.1-3.94v-9.64h3.19v2.68h2.72v2.45h-2.72
				v4.47c0,0.94,0.49,1.45,1.35,1.45c0.47,0,0.94-0.14,1.31-0.41L95.46,22.9z"/>
		</g>
	</g>
</g>
</svg>
